# xmcd
#
# Track frame offsets:
#	150
#	11143
#	22383
#	34580
#	44633
#	59047
#	73199
#	83332
#	94454
#	102411
#	110887
#	125061
#	137418
#	148099
#	157590
#	167144
#	180437
#	190141
#	201776
#	214097
#	225266
#	236985
#	246315
#	256494
#	267123
#
# Disc length: 3700 seconds
#
# Revision: 0
# Processed by: cddbd v1.5PL3 Copyright (c) Steve Scherf et al.
# Submitted via: dBpowerAMP V4.0
#
DISCID=740e7219
DTITLE=Various Artist - Down Home Country Christmas
DYEAR=1900
DGENRE=
TTITLE0=Holly Jolly Christmas
TTITLE1=Frosty The snowman
TTITLE2=Away In A Manger
TTITLE3=All Through The Night
TTITLE4=The Most Wonderful Day Of The Year
TTITLE5=Silent Night
TTITLE6=Up On The Housetop
TTITLE7=We Three Kings
TTITLE8=Deck The Halls
TTITLE9=Patapan
TTITLE10=The First Noel
TTITLE11=O Christmas Tree
TTITLE12=Angels We Have Heard On High
TTITLE13=We Wish You A Merry Christmas
TTITLE14=Here We Come A-Wassailing
TTITLE15=What Child Is This
TTITLE16=The Holly and The Ivy
TTITLE17=Jolly Old St. Nicholas
TTITLE18=It Came Upon The Midnight Clear
TTITLE19=God Rest Ye Merry Gentlemen
TTITLE20=Go Tell It On The Mountain
TTITLE21=Good Christian Men Rejoice
TTITLE22=Once In Royal David's City
TTITLE23=Ding Dong Merrily On High
TTITLE24=Angels From The Realms Of Glory
EXTD=
EXTT0=
EXTT1=
EXTT2=
EXTT3=
EXTT4=
EXTT5=
EXTT6=
EXTT7=
EXTT8=
EXTT9=
EXTT10=
EXTT11=
EXTT12=
EXTT13=
EXTT14=
EXTT15=
EXTT16=
EXTT17=
EXTT18=
EXTT19=
EXTT20=
EXTT21=
EXTT22=
EXTT23=
EXTT24=
PLAYORDER=
